<?xml version="1.0" encoding="UTF-8" standalone="no"?>
<svg
   xmlns:dc="http://purl.org/dc/elements/1.1/"
   xmlns:cc="http://creativecommons.org/ns#"
   xmlns:rdf="http://www.w3.org/1999/02/22-rdf-syntax-ns#"
   xmlns:svg="http://www.w3.org/2000/svg"
   xmlns="http://www.w3.org/2000/svg"
   xmlns:sodipodi="http://sodipodi.sourceforge.net/DTD/sodipodi-0.dtd"
   xmlns:inkscape="http://www.inkscape.org/namespaces/inkscape"
   id="svg3001"
   viewBox="0 0 288.17 182.49"
   version="1.1"
   inkscape:version="0.91 r13725"
   sodipodi:docname="infinity_white.svg">
  <defs
     id="defs10" />
  <sodipodi:namedview
     pagecolor="#ffffff"
     bordercolor="#666666"
     borderopacity="1"
     objecttolerance="10"
     gridtolerance="10"
     guidetolerance="10"
     inkscape:pageopacity="0"
     inkscape:pageshadow="2"
     inkscape:window-width="1920"
     inkscape:window-height="1017"
     id="namedview8"
     showgrid="false"
     inkscape:zoom="1.0098205"
     inkscape:cx="144.08501"
     inkscape:cy="91.245003"
     inkscape:window-x="1358"
     inkscape:window-y="-8"
     inkscape:window-maximized="1"
     inkscape:current-layer="g3007" />
  <title
     id="title3013">Infinity Symbol</title>
  <g
     id="g3007"
     transform="translate(-20 -20.002)">
    <path
       id="path3009"
       d="m177.49 123.22c10.756 20.321 30.069 38.128 54.111 38.96 20.845 2.2793 42.597-9.3554 50.424-29.2 10.429-24.989 2.9087-59.279-23.126-71.338-18.753-8.8912-41.674-1.1338-53.819 15.003-11.557 13.955-19.803 30.323-27.589 46.575zm-26.81-23.511c-10.92-21-31.7-38.622-56.345-38.634-22.732-1.878-45.352 13.788-50.658 36.159-6.3839 23.755 1.9998 53.229 25.598 64.054 18.176 8.568 40.529 1.7072 52.728-13.732 12.219-14.149 20.674-31.091 28.681-47.847zm15.601 40.21c-12.66 23.84-29.77 49.77-57.87 56.22-24.714 5.77-51.046-5.96-65.45-26.38-20.602-27.17-21.978-64.74-12.19-96.346 7.615-24.179 28.542-45.833 54.944-47.105 22.84-2.7117 44.157 10.578 57.197 28.507 7.5134 7.411 16.273 24.25 19.476 29.411 12.093-23.863 29.377-51.357 57.101-57.809 24.023-5.7755 49.694 5.3778 64.097 24.976 22.38 27.692 24.148 67.326 13.083 100.03-8.086 23.249-28.587 43.813-54.209 44.979-21.808 2.4742-42.976-8.8262-55.842-26.044-7.7387-9.4612-14.29-19.832-20.332-30.439z"
       style="fill:#ffffff;fill-opacity:1" />
  </g>
  <metadata
     id="metadata6">
    <rdf:RDF>
      <cc:Work>
        <dc:format>image/svg+xml</dc:format>
        <dc:type
           rdf:resource="http://purl.org/dc/dcmitype/StillImage" />
        <cc:license
           rdf:resource="http://creativecommons.org/licenses/publicdomain/" />
        <dc:publisher>
          <cc:Agent
             rdf:about="http://openclipart.org/">
            <dc:title>Openclipart</dc:title>
          </cc:Agent>
        </dc:publisher>
        <dc:title>Infinity Symbol</dc:title>
        <dc:date>2013-07-01T16:58:29</dc:date>
        <dc:description>The mathematical symbol used to represent the concept of inifinity (endlessness).</dc:description>
        <dc:source>https://openclipart.org/detail/179929/infinity-by-gr8dan-179929</dc:source>
        <dc:creator>
          <cc:Agent>
            <dc:title>GR8DAN</dc:title>
          </cc:Agent>
        </dc:creator>
        <dc:subject>
          <rdf:Bag>
            <rdf:li>eight</rdf:li>
            <rdf:li>endless</rdf:li>
            <rdf:li>endlessness</rdf:li>
            <rdf:li>figure</rdf:li>
            <rdf:li>infinitas</rdf:li>
            <rdf:li>infinite</rdf:li>
            <rdf:li>infinity</rdf:li>
            <rdf:li>mathematical</rdf:li>
            <rdf:li>swirl</rdf:li>
            <rdf:li>symbol</rdf:li>
          </rdf:Bag>
        </dc:subject>
      </cc:Work>
      <cc:License
         rdf:about="http://creativecommons.org/licenses/publicdomain/">
        <cc:permits
           rdf:resource="http://creativecommons.org/ns#Reproduction" />
        <cc:permits
           rdf:resource="http://creativecommons.org/ns#Distribution" />
        <cc:permits
           rdf:resource="http://creativecommons.org/ns#DerivativeWorks" />
      </cc:License>
    </rdf:RDF>
  </metadata>
</svg>
